<svg width="74" height="63" viewBox="0 0 74 63" fill="none" xmlns="http://www.w3.org/2000/svg">
<path d="M71.4782 18.096C70.0159 14.3405 67.9554 11.1251 65.2884 8.44146C62.6214 5.76612 59.4309 3.68898 55.717 2.21007C52.0114 0.739459 47.882 0 43.3456 0H40.5872V7.3115H43.3456C46.5527 7.3115 49.4524 7.83494 52.0446 8.88181C54.6369 9.92869 56.8469 11.4575 58.6831 13.4515C60.511 15.4539 61.9234 17.8883 62.9122 20.763C63.9009 23.6378 64.3994 26.8947 64.3994 30.5255C64.3994 34.1813 63.9009 37.4465 62.9122 40.3046C61.9234 43.1711 60.511 45.5972 58.6831 47.5995C56.8552 49.6019 54.6452 51.1224 52.0446 52.1692C49.4524 53.2161 46.5527 53.7395 43.3456 53.7395H40.5872V61.051H43.3456C47.882 61.051 52.0031 60.3116 55.7253 58.841C59.4392 57.3704 62.6297 55.2932 65.2967 52.6096C67.9637 49.9342 70.0243 46.7188 71.4866 42.98C72.9489 39.2412 73.68 35.0869 73.68 30.5172C73.6717 25.9974 72.9405 21.8514 71.4782 18.096Z" fill="#A9ABAE" fill-opacity="0.24"/>
<path d="M16.6171 0H35.0205L25.8146 16.4509L16.6171 0Z" fill="#A9ABAE" fill-opacity="0.24"/>
<path d="M37.8536 1.24628V17.9547H28.4152L37.8536 1.24628Z" fill="#A9ABAE" fill-opacity="0.24"/>
<path d="M13.6841 0.781006L23.1309 17.9547H0L13.6841 0.781006Z" fill="#A9ABAE" fill-opacity="0.24"/>
<path d="M0 21.1701H24.5434L34.2644 60.3448L0 21.1701Z" fill="#A9ABAE" fill-opacity="0.24"/>
<path d="M28.4152 21.1701H37.8536V62.1395L28.4152 21.1701Z" fill="#A9ABAE" fill-opacity="0.24"/>
</svg>
